<svg xmlns="http://www.w3.org/2000/svg" xmlns:xlink="http://www.w3.org/1999/xlink" width="525" height="525" viewBox="0 0 138.906 138.906"><defs><radialGradient xlink:href="#a" id="c" cx="88.268" cy="123.26" r="58.604" fx="88.268" fy="123.26" gradientTransform="matrix(1.29516 .0556 -.06452 1.50304 -15.992 -68.08)" gradientUnits="userSpaceOnUse"/><radialGradient xlink:href="#b" id="d" cx="44.496" cy="44.47" r="19.896" fx="44.496" fy="44.47" gradientTransform="matrix(.7524 0 0 .69626 33.086 158.309)" gradientUnits="userSpaceOnUse"/><radialGradient xlink:href="#b" id="f" cx="48.372" cy="45.055" r="19.896" fx="48.372" fy="45.055" gradientTransform="matrix(.38249 .11776 -.1656 .53787 76.074 164.492)" gradientUnits="userSpaceOnUse"/><radialGradient xlink:href="#b" id="g" cx="44.496" cy="44.47" r="19.896" fx="44.496" fy="44.47" gradientTransform="matrix(1.1107 0 0 1.0278 57.277 151.076)" gradientUnits="userSpaceOnUse"/><radialGradient xlink:href="#b" id="e" cx="44.496" cy="44.47" r="19.896" fx="44.496" fy="44.47" gradientTransform="matrix(.37944 .0141 -.0144 .38712 115.798 176.855)" gradientUnits="userSpaceOnUse"/><linearGradient id="b"><stop offset="0" style="stop-color:#9bcc14;stop-opacity:1"/><stop offset="1" style="stop-color:#9ac134;stop-opacity:1"/></linearGradient><linearGradient id="a"><stop offset="0" style="stop-color:#96d3e3;stop-opacity:1"/><stop offset="1" style="stop-color:#6cb4c5;stop-opacity:1"/></linearGradient></defs><g transform="translate(-39.431 -78.862)"><ellipse cx="109.007" cy="148.138" rx="68.552" ry="69.276" style="display:inline;fill:#d6bb95;fill-opacity:1;stroke-width:.264583"/><ellipse cx="111.331" cy="149.753" rx="58.604" ry="59.147" style="display:inline;fill:#806c50;fill-opacity:1;stroke-width:.508195"/><ellipse cx="110.635" cy="148.862" rx="58.604" ry="58.785" style="display:inline;fill:url(#c);fill-opacity:1;stroke-width:.264583"/></g><g style="display:inline" transform="translate(-38.408 -78.862)"><path fill="#d6a57c" d="M148.522 141.912c0-26.705-18.851-39.272-39.272-39.272-20.422 0-39.272 12.567-39.272 39.272-5.498 0-7.854 3.927-7.854 7.854s2.356 7.855 7.854 7.855c0 10.524 10.996 25.133 39.272 25.133 28.275 0 39.272-14.609 39.272-25.133 5.498 0 7.854-3.928 7.854-7.855 0-3.927-2.356-7.854-7.854-7.854" style="stroke-width:1.57087"/><path fill="#594640" d="M110.82 123.061c-6.283-4.712-3.141-10.996-3.141-10.996s12.567 7.855 23.563 4.713c0 0-6.284-1.571-7.854-6.284 0 0 6.283 1.571 10.996 0-6.284-4.712-14.138-7.854-25.134-7.854s-18.85 3.142-25.134 7.854c6.283 7.855 12.567 12.567 26.705 12.567" style="stroke-width:1.57087"/><g fill="#ff717f"><path d="M146.95 158.249c-.628-3.77-5.183-6.127-10.367-5.027-5.184.943-8.954 4.87-8.326 8.64.629 3.77 5.184 6.126 10.368 5.027 5.027-1.1 8.797-4.87 8.326-8.64M81.917 153.065c-5.027-.943-9.74 1.414-10.368 5.184-.629 3.77 3.141 7.697 8.325 8.64 5.184.942 9.897-1.257 10.368-5.027.628-3.927-3.142-7.697-8.325-8.797" opacity=".5"/></g><path fill="#fff" d="M99.824 142.697a10.19 10.19 0 0 1-10.21 10.21 10.19 10.19 0 0 1-10.21-10.21 10.19 10.19 0 0 1 10.21-10.21 10.19 10.19 0 0 1 10.21 10.21" style="stroke-width:1.57087"/><circle cx="89.614" cy="142.697" r="7.069" fill="#664e27" style="stroke-width:1.57087"/><path fill="#fff" d="M139.096 142.697a10.19 10.19 0 0 1-10.21 10.21 10.19 10.19 0 0 1-10.211-10.21 10.19 10.19 0 0 1 10.21-10.21 10.19 10.19 0 0 1 10.211 10.21" style="stroke-width:1.57087"/><circle cx="128.886" cy="142.697" r="7.069" fill="#664e27" style="stroke-width:1.57087"/><path fill="#61c2ff" d="M132.813 168.302c0 13.039-10.525 19.165-23.563 19.165-13.039 0-23.563-6.126-23.563-19.165 0-13.195 10.682-7.54 23.563-7.54 13.038 0 23.563-5.655 23.563 7.54" style="display:inline;stroke-width:1.57087"/><ellipse cx="109.25" cy="173.329" fill="#6235a8" rx="9.425" ry="7.854" style="display:inline;stroke-width:1.57087"/><path fill="#fbbf67" d="M109.25 171.758c-9.583 0-17.28-1.1-17.28 8.169 0 9.425 7.697 16.965 17.28 16.965 9.582 0 17.28-7.54 17.28-16.808 0-9.425-7.698-8.326-17.28-8.326m0 19.48c-6.755 0-13.039-4.556-13.039-11.154s6.284-5.027 13.039-5.027c6.754 0 13.038-1.57 13.038 5.027 0 6.598-6.284 11.153-13.038 11.153" style="display:inline;stroke-width:1.57087"/><path fill="#42ade2" d="M115.533 176.157c0 .942-.785 1.885-1.728 1.885h-9.11c-.943 0-1.729-.786-1.729-1.885v-4.242c0-.942.786-1.885 1.728-1.885h9.111c.943 0 1.728.786 1.728 1.885v4.242" style="display:inline;stroke-width:1.57087"/><path fill="#b58360" d="M109.25 159.191c-6.598 0-9.897-4.712-6.598-4.712h13.195c3.3 0 0 4.712-6.597 4.712" style="display:inline;stroke-width:1.57087"/></g></svg>