<svg xmlns="http://www.w3.org/2000/svg" width="1024" height="1024" class="img-fluid" style="transform:matrix(.769231,0,0,.769231,0,0);transform-origin:50% 50%0;cursor:move;transition:none 0s ease 0s" viewBox="0 0 10240 10240"><path fill="#fbe1d2" d="M4916 9063c-1532.05 65.42-2863.53-1288.54-3014-2768.66-150.471-1480.12 58.035-3195.111 1451.26-3915.001 1004.228-444.166 2225.095-576.51 3265.35-174.978 1280.476 513.972 1820.305 1969.828 1784.049 3261.949-34.176 1233.881-422.806 2708.829-1665.378 3241.734C6170.681 8972.983 5537.446 9067.877 4916 9063Z" style="display:inline" transform="translate(-176.39 -88.195)"/><g fill="#146a54" style="display:inline"><path d="M7754.61 8224.805c-73-5-121-41-121-90 0-37 32-107 80-175 17-24 43-61 57-83 40-60 240-262 303-305 73-49 170-94 300-136 134-44 143-46 340-51 180-4 331 14 498 63 99 28 114 36 141 70 84 107-90 314-379 452-148 71-367 152-410 152-9 0-20 3-24 7s-15 8-24 8c-20 0-123 22-167 35-16 5-57 11-90 15-33 3-103 12-155 20-104 15-265 23-349 18zM1748.61 8120.805c-218.37-32.759-441.248-73.033-638.264-177.261-75.734-43.96-144.533-142.1-106.69-230.793 44.714-83.145 153.91-69.849 233.672-67.321 95.989 9.225 188.633 38.088 283.995 51.285-46.955-60.627-139.865-54.82-202.272-96.102-118.51-44.236-245.794-74.347-345.226-157.367-139.647-101.884-277.973-215.5-369.831-364.086-40.393-72.346-63.223-178.63.194-244.322 81.731-50.284 176.423 9.167 251.428 45.154 319.811 160.659 595.144 395.479 841.668 652.315 103.288 103.594 218.42 194.253 339.05 276.554 73.6 56.986 151.501 142.316 132.965 242.843-35.92 97.676-158.995 77.824-241.688 78.738-59.762-.932-119.46-4.488-179-9.637zM8254.61 7369.805c-98.223-82.61-35.074-221.15-7.77-322.918 52.336-150.952 91.131-303.408 128.63-461.117 37.5-157.71 134.425-298.577 210.682-442.781 131.928-217.274 300.84-408.496 457.271-607.892 84.671-95.056 163.39-198.735 262.823-278.44 107.146-60.03 262.582-15.584 305.943 104.309 59.795 143.86 58.602 319.814-25.897 454.202-21.432 80.95-124.815 122.363-132.931 200.887 98.223-23.655 230.384 13.034 229.368 134.445 29.064 210.409-98.555 401.432-226.712 555.775-227.153 275.777-536.243 480.56-875.113 591.95-90.971 34.143-181.02 71.844-275.543 95.33-19.917.754-35.495-13.188-50.75-23.75zM1468.61 7185.805c-127-87-163-113-229-171-117-102-246-255-348-415-82-130-176-320-183-374-3-27-11-61-17-76-7-20-7-36 0-55 6-16 13-41 17-56 10-49 47-77 101-77 58 0 97 18 154 73 154 148 347 443 541 829 32 65 59 123 59 130s6 25 14 40c17 32 30 120 21 147-5 16-55 43-74 40-3-1-28-16-56-35z"/></g><g fill="#ffbfaa" style="display:inline"><path d="M6593.61 7445.805c-222.77-48.887-422.061-231.84-455.404-462.658-45.553-149.595 7.443-308.14 75.19-442.167 102.49-178.179 304.424-292.775 509.903-290.05 261.662-20.847 544 120.193 645.656 369.744 57.384 146.911 50.24 310.97 19.285 462.951-59.686 201.95-256.501 333.67-455.163 374.219-111.922 23.151-229.565 19.809-339.466-12.039ZM2914.61 7452.805c-191.298-9.654-363.608-130.064-462.353-290.534-126.799-195.027-114.684-461.019 10.915-653.49 90.941-145.523 246.993-249.269 418.694-267.307 247.884-40.641 522.764 56.872 664.513 270.001 123.502 175.839 135.839 415.262 53.68 610.704-45.216 108.24-133.419 193.707-238.173 244.605-136.529 70.968-294.504 98.293-447.275 86.021Z"/></g><g fill="#144f71" style="display:inline"><path d="M4878.61 7974.805c-43.573-.133-80.98-25.337-122.48-34.845-91.667-32.358-172.73-92.726-234.296-167.487-20.064-25.916-36.615-57.32-34.833-91.011 15.968-33.68 61.928-44.561 95.835-40.6 68.025 23.26 115.372 81.617 177.287 116.01 114.189 68.713 267.767 72.84 380.866-.18 34.053-25.783 56.344-63.195 87.161-92.289 33.152-14.183 70.91.042 101.415 14.607 42.393 18.738 37.952 67.94 9.222 96.534-20.677 34.731-41.445 69.15-77.108 90.801-109.527 79.633-247.767 120.604-383.068 108.46ZM4938.61 7191.805c-90-16-125-47-125-112 0-57 28-71 137-67 65 3 99 10 128 25 46 24 54 48 30 93-25 50-93 74-170 61zM2160.61 5920.805c-61.681-45.64-66.722-159.174-1.75-204 50.994.228 105.716 26.677 138.75-33 105.479-100.592 235.452-173.005 371.06-224.396 61.92-18.93 123.37-39.952 188.44-45.979 151.53-25.988 307.721-13.518 456.5 22.375 105.09 24.399 206.933 61.48 300.698 115.22 54.742 32.353 114.832 61.283 156.522 110.523 15.352 81.135-84.592 144.216-156.566 112.649-131.456-50.588-257.03-118.831-396.487-146.395-81.949-24.504-169.772-13.271-254.244-15.118-61.848-5.02-117.846 21.775-178.004 29.842-158.707 38.239-304.32 122.008-428.766 226.407-45.027 38.697-100.722 70.891-162.457 61.016-11.592-1.293-23.33-3.462-33.695-9.144zM7489.61 5904.805c-83.143-39.912-149.792-107.272-232.624-148.44-114.832-60.896-232.462-127.626-363.056-145.473-107.822-3.908-216.182-5.91-323.944.039-121.707 20.277-229.798 84.534-342.34 131.336-47.818 11.466-117.52 41.257-153.422-6.478-45.933-41.915-34.946-115.053 19.42-144.028 98.286-66.322 207.683-116.406 319.971-154.068 152.924-46.011 315.196-46.298 473.386-39.778 135.389 14.995 264.803 66.455 384.879 129.065 72.568 38.077 129.48 98.548 199.375 140.943 58.226 45.077 130.744 81.294 165.09 149.21 26.651 81.053-56.457 109.133-120.556 91.953-8.797-.912-17.583-2.155-26.178-4.28z"/></g></svg>